<?xml version="1.0" standalone="no"?><!DOCTYPE svg PUBLIC "-//W3C//DTD SVG 1.1//EN" "http://www.w3.org/Graphics/SVG/1.1/DTD/svg11.dtd"><svg t="1602732369042" class="icon" viewBox="0 0 1024 1024" version="1.1" xmlns="http://www.w3.org/2000/svg" p-id="643" xmlns:xlink="http://www.w3.org/1999/xlink" width="200" height="200"><defs><style type="text/css"></style></defs><path d="M512.32 960.43c-247.07 0-448.11-201-448.11-448.11s201-448.11 448.11-448.11 448.11 201 448.11 448.11-201.04 448.11-448.11 448.11z m0-869.05c-232.12 0-420.95 188.83-420.95 420.95S280.2 933.28 512.32 933.28s420.95-188.84 420.95-420.95S744.43 91.38 512.32 91.38z" fill="#707070" p-id="644"></path><path d="M512.32 851.8v-27.16c8.75 0 17.45-0.34 26-1l2.17 27.05c-9.29 0.71-18.68 1.11-28.17 1.11z m-12.12-0.24q-14.2-0.47-28.2-2.14l3.24-26.95c8.51 1 17.13 1.67 25.83 1.94z m68.43-4.4l-4.51-26.79q12.88-2.18 25.43-5.37l6.74 26.31q-13.61 3.52-27.67 5.85z m-124.54-2.23q-13.92-2.86-27.4-6.79l7.59-26.1c8.3 2.44 16.74 4.51 25.27 6.26z m179.26-11.7l-8.86-25.67c8.22-2.84 16.31-6 24.19-9.52l11 24.82q-12.91 5.74-26.34 10.38zM389.84 829c-8.78-3.42-17.42-7.16-25.88-11.3l11.88-24.4c7.77 3.77 15.73 7.24 23.82 10.34z m285.21-18.72l-13-23.82c7.61-4.16 15.06-8.65 22.25-13.39l15 22.6q-11.77 7.88-24.25 14.65z m-335.92-6c-8.14-4.77-16-10-23.74-15.44l15.81-22.12c7 5 14.27 9.76 21.72 14.16z m383.08-25.17l-16.81-21.32q10.22-8 19.76-16.95l18.51 19.89q-10.35 9.68-21.46 18.43z m-429.12-7.64q-10.82-9.15-20.79-19.15l19.2-19.2q9.19 9.19 19.15 17.61z m470.46-30.9l-20.1-18.25q8.75-9.63 16.68-20L781.67 719c-5.73 7.44-11.8 14.68-18.12 21.62z m-510.43-9c-6.07-7.19-11.88-14.64-17.34-22.33l22.12-15.74c5 7.05 10.37 13.92 16 20.53zM798 695.86l-22.86-14.69q7-10.9 13.15-22.41l24 12.73C807.85 679.81 803 688 798 695.86z m-577.68-10.29c-4.77-8-9.26-16.36-13.39-24.88l24.4-11.88q5.73 11.74 12.33 22.86zM824.47 646l-24.93-10.71q5.09-11.89 9.2-24.27l25.78 8.54Q830 633 824.47 646z m-628.9-11.27q-5.05-13.13-9.07-26.79l26.1-7.59c2.41 8.35 5.22 16.55 8.33 24.61z m646.75-42.33l-26.41-6.4c2-8.35 3.71-16.87 5-25.49l26.84 4.14q-2.11 14.02-5.43 27.75z m-662.66-11.88c-1.86-9.18-3.37-18.51-4.48-27.93l27-3.18c1 8.67 2.36 17.21 4.11 25.65z m671.28-44l-27.1-1.86q0.76-11.1 0.8-22.41v-3.53l27.16-0.58v4.16c-0.03 8.2-0.3 16.26-0.86 24.24z m-677.88-12.1c-0.13-4-0.21-8-0.21-12.09q0-8.16 0.4-16.18l27.1 1.27c-0.21 4.93-0.34 9.89-0.34 14.91 0 3.74 0.08 7.45 0.21 11.14z m650.17-41.77q-1.19-13-3.5-25.75l26.73-4.83q2.47 13.88 3.82 28z m-620.58-11.14L175.71 468q1.83-14.12 4.83-27.87l26.52 5.78c-1.83 8.42-3.29 16.93-4.41 25.6z m611.45-40q-3.42-12.65-7.77-24.85l25.57-9.12q4.73 13.21 8.41 26.92z m-600.44-10.79l-26-8c2.78-9 5.91-17.93 9.42-26.63l25.2 10.08c-3.18 8.06-6.1 16.23-8.62 24.55z m582.83-38.11q-5.41-11.86-11.78-23.18l23.66-13.31q6.92 12.33 12.84 25.2zM233 372.51l-24.29-12.15q6.37-12.69 13.71-24.72l23.18 14.16c-4.52 7.35-8.76 14.94-12.6 22.71z m538-35.27q-7.32-10.78-15.49-21l21.22-17q8.79 11 16.76 22.7z m-510.91-9.1l-21.91-16c5.54-7.59 11.43-15 17.58-22.09l20.53 17.77q-8.53 9.8-16.22 20.32z m478.29-31.32q-9-9.43-18.75-18.11l18-20.26q10.6 9.38 20.37 19.55z m-444.23-7.93l-19-19.47c6.71-6.55 13.74-12.84 21-18.86l17.34 20.9q-10.07 8.32-19.36 17.43z m405.38-26.57c-7-5.2-14.11-10.1-21.48-14.75l14.48-23c8 5 15.73 10.34 23.23 16z m-365.33-6.56l-15.54-22.28q11.62-8.08 23.9-15.17l13.58 23.5q-11.27 6.52-21.94 13.95z m321.25-21.08q-11.5-6-23.55-11l10.4-25.09q13.09 5.45 25.62 11.91z m-276.27-5l-11.51-24.58c8.46-4 17.16-7.64 26-11l9.49 25.46q-12.23 4.63-23.98 10.16z m228.27-14.93c-8.2-2.63-16.58-4.91-25.06-6.87l6.1-26.47q13.84 3.18 27.24 7.45z m-179.52-3.26l-7.32-26.15q13.53-3.78 27.48-6.47l5.15 26.68c-8.58 1.68-17.04 3.67-25.31 5.97z m128.84-8.35c-8.49-1.22-17.11-2.1-25.81-2.57l1.49-27.1c9.49 0.53 18.91 1.46 28.19 2.78z m-77.87-1.43l-2.81-27c9.26-1 18.67-1.59 28.17-1.8l0.64 27.16q-13.14 0.34-26 1.67zM541.11 581.35c0.64-0.4 7.68-4.8 9.74-6a94.08 94.08 0 0 1 10.1-5.45c22.1-10.05 41.58-2.94 67.35 27.17 15.94 18.64 20.66 35.18 14.5 49.9-4.58 11-13.42 18.6-29.14 28-1 0.6-10.07 5.87-12.4 7.31-36.6 22.58-120.48-29.11-180.81-117.45-60.48-88.56-76.14-183-39.05-205.9l4.89-3.1 5.31-3.45c18.75-12.13 30.75-17 45-14.57s26.3 13 36.53 32.1c21.56 40.51 16.8 59.73-10.94 77.2-2 1.28-9.08 5.56-9.74 6-6.8 4.21 4.72 32.39 31.48 71.58 27.1 39.63 49.75 61.3 57.16 56.74z" fill="#707070" p-id="645"></path></svg>