<?xml version="1.0" standalone="no"?><!DOCTYPE svg PUBLIC "-//W3C//DTD SVG 1.1//EN" "http://www.w3.org/Graphics/SVG/1.1/DTD/svg11.dtd"><svg t="1602732373998" class="icon" viewBox="0 0 1024 1024" version="1.1" xmlns="http://www.w3.org/2000/svg" p-id="781" xmlns:xlink="http://www.w3.org/1999/xlink" width="200" height="200"><defs><style type="text/css"></style></defs><path d="M512.32 960.23c-247.07 0-448.11-201-448.11-448.11S265.24 64 512.32 64s448.11 201 448.11 448.11-201.04 448.12-448.11 448.12z m0-869.05C280.2 91.18 91.37 280 91.37 512.13S280.2 933.07 512.32 933.07s420.94-188.83 420.94-420.94S744.43 91.18 512.32 91.18z" fill="#707070" p-id="782"></path><path d="M512.32 851.6v-27.16c8.75 0 17.45-0.34 26-1l2.17 27.05c-9.29 0.71-18.68 1.11-28.17 1.11z m-12.12-0.24q-14.2-0.48-28.2-2.15l3.24-26.95c8.51 1 17.13 1.67 25.83 1.94z m68.43-4.4l-4.51-26.79q12.88-2.17 25.43-5.35l6.74 26.31q-13.61 3.5-27.67 5.87z m-124.54-2.23q-13.92-2.86-27.4-6.79l7.59-26.1c8.3 2.44 16.73 4.51 25.27 6.26zM623.34 833l-8.86-25.67c8.22-2.84 16.31-6 24.19-9.52l11 24.82q-12.9 5.76-26.33 10.37z m-233.49-4.19c-8.78-3.42-17.42-7.16-25.88-11.3l11.88-24.4c7.77 3.77 15.73 7.24 23.82 10.34z m285.21-18.72l-13-23.82c7.61-4.16 15.06-8.65 22.25-13.39l15 22.6q-11.78 7.87-24.26 14.64z m-335.92-6c-8.14-4.77-16-10-23.74-15.44l15.81-22.12c7 5 14.27 9.76 21.72 14.16zM722.21 779l-16.81-21.32q10.22-8 19.76-16.95l18.51 19.89q-10.35 9.59-21.46 18.38z m-429.12-7.64q-10.82-9.15-20.79-19.15L291.5 733q9.19 9.19 19.15 17.61z m470.46-30.9l-20.1-18.25q8.75-9.63 16.68-20l21.54 16.55c-5.73 7.47-11.8 14.71-18.12 21.66z m-510.43-9c-6.07-7.19-11.88-14.64-17.34-22.33l22.12-15.75c5 7.05 10.37 13.92 16 20.53zM798 695.66L775.12 681q7-10.9 13.15-22.41l24 12.73c-4.42 8.29-9.27 16.43-14.27 24.34z m-577.68-10.3c-4.77-8-9.26-16.36-13.39-24.88l24.4-11.88q5.73 11.74 12.33 22.86z m604.15-39.56l-24.93-10.71q5.09-11.89 9.2-24.27l25.78 8.54q-4.52 13.48-10.05 26.44z m-628.9-11.27q-5.05-13.13-9.07-26.79l26.1-7.59c2.41 8.35 5.22 16.55 8.33 24.61z m646.75-42.33l-26.42-6.42c2-8.35 3.71-16.87 5-25.49l26.84 4.14q-2.1 14.04-5.42 27.77z m-662.66-11.89c-1.86-9.18-3.37-18.51-4.48-27.93l27-3.18c1 8.67 2.36 17.21 4.11 25.65z m671.28-44l-27.1-1.86q0.76-11.1 0.8-22.41v-3.53l27.16-0.58v4.16c-0.04 8.21-0.3 16.27-0.86 24.25z m-677.88-12.09c-0.13-4-0.21-8-0.21-12.09q0-8.16 0.4-16.18l27.1 1.27c-0.21 4.93-0.34 9.89-0.34 14.91 0 3.74 0.08 7.45 0.21 11.14z m650.17-41.77q-1.19-13-3.5-25.75l26.73-4.83q2.47 13.88 3.82 28z m-620.58-11.14l-26.95-3.5q1.83-14.12 4.83-27.87l26.52 5.78c-1.82 8.4-3.28 16.92-4.4 25.59z m611.45-40q-3.42-12.65-7.77-24.85l25.57-9.12q4.73 13.21 8.41 26.92z m-600.44-10.79l-26-8c2.78-9 5.91-17.93 9.42-26.63l25.2 10.11c-3.18 8-6.1 16.19-8.62 24.52z m582.83-38.11q-5.41-11.86-11.78-23.18l23.66-13.31q6.92 12.33 12.84 25.2zM233 372.31l-24.29-12.15q6.37-12.69 13.71-24.72l23.18 14.16c-4.52 7.4-8.76 14.94-12.6 22.71zM771 337q-7.32-10.78-15.49-21l21.22-17q8.79 11 16.76 22.7z m-510.91-9.1l-21.91-16c5.54-7.59 11.43-15 17.58-22.09l20.53 17.77q-8.53 9.84-16.22 20.36z m478.29-31.32q-9-9.43-18.75-18.11l18-20.26q10.58 9.39 20.34 19.6z m-444.23-7.93l-19-19.47c6.71-6.55 13.74-12.84 21-18.86l17.34 20.9q-10.07 8.35-19.36 17.46z m405.38-26.57c-7-5.2-14.11-10.1-21.48-14.75l14.48-23c8 5 15.73 10.34 23.23 16z m-365.33-6.52l-15.54-22.28q11.62-8.08 23.9-15.17l13.58 23.5q-11.27 6.52-21.94 13.95z m321.25-21.08q-11.5-6-23.55-11l10.4-25.09q13.09 5.45 25.62 11.91z m-276.27-5l-11.51-24.58c8.46-4 17.16-7.64 26-11l9.49 25.46q-12.23 4.64-23.98 10.16z m228.27-14.93c-8.2-2.63-16.58-4.91-25.06-6.87l6.1-26.47q13.84 3.18 27.24 7.45z m-179.52-3.26l-7.32-26.15q13.53-3.78 27.48-6.47l5.15 26.68c-8.58 1.65-17.04 3.65-25.31 5.97zM556.77 203c-8.49-1.22-17.11-2.1-25.81-2.57l1.49-27.1c9.49 0.53 18.91 1.46 28.19 2.78z m-77.87-1.43l-2.81-27c9.26-1 18.67-1.59 28.17-1.8l0.64 27.16q-13.14 0.28-26 1.61zM512.33 438.33A177.16 177.16 0 0 0 372.18 507l18.69 14.56a153.62 153.62 0 0 1 242.94 0L652.47 507a177.24 177.24 0 0 0-140.14-68.67z m0-71.08c-79.84 0-150.73 37.77-196.24 96.23l19.14 14.87c41.11-52.76 105.07-86.83 177.11-86.83s136 34.07 177.11 86.83l19.17-14.9C663 405 592.17 367.25 512.33 367.25z m0 142.17a106.32 106.32 0 0 0-84.1 41.25l18.72 14.56a82.74 82.74 0 0 1 130.83 0l18.66-14.56a106.32 106.32 0 0 0-84.11-41.25zM476.8 616.05a35.53 35.53 0 1 0 35.53-35.53 35.53 35.53 0 0 0-35.53 35.53z" fill="#707070" p-id="783"></path><path d="M512.33 655.34a39.28 39.28 0 1 1 39.29-39.29 39.33 39.33 0 0 1-39.29 39.29z m0-71.05a31.77 31.77 0 1 0 31.77 31.77 31.81 31.81 0 0 0-31.77-31.77z m-64.73-13.78l-24.65-19.18 2.31-3a110.12 110.12 0 0 1 174.14 0l2.31 3-24.58 19.19-2.31-3a79 79 0 0 0-124.9 0z m64.72-41.11a86.19 86.19 0 0 1 66 30.61l12.75-10a102.58 102.58 0 0 0-157.56 0l12.79 10a85.91 85.91 0 0 1 66.03-30.61z m-120.8-2.53l-24.62-19.18 2.31-3a181.06 181.06 0 0 1 286.22 0l2.31 3-24.58 19.19-2.31-3c-28.83-36.94-72-58.13-118.52-58.13a149.35 149.35 0 0 0-118.5 58.15z m120.8-68.61a156.92 156.92 0 0 1 122.1 58.09l12.74-9.95a173.52 173.52 0 0 0-269.69 0l12.77 9.95a156.72 156.72 0 0 1 122.09-58.09z m176.45 25.36l-2.31-3c-42.28-54.26-105.75-85.38-174.14-85.38s-131.85 31.16-174.14 85.42l-2.31 3-25.07-19.48 2.31-3c48.34-62.08 120.95-97.68 199.21-97.68s150.86 35.59 199.24 97.65l2.31 3z m-367.4-20.79l13.21 10.26c43.7-54.28 108.27-85.33 177.74-85.33s134 31.05 177.74 85.33l13.24-10.29C656.37 404.41 587 371 512.33 371s-144.06 33.42-190.95 91.83z" fill="#707070" p-id="784"></path></svg>