<svg id="图层_1" data-name="图层 1" xmlns="http://www.w3.org/2000/svg" viewBox="0 0 1024 1024"><defs><style>.cls-1{fill:#385bff;}</style></defs><title>图标制作模版</title><path class="cls-1" d="M512.32,960.43c-247.07,0-448.11-201-448.11-448.11s201-448.11,448.11-448.11,448.11,201,448.11,448.11S759.39,960.43,512.32,960.43Zm0-869.05C280.2,91.38,91.37,280.21,91.37,512.33S280.2,933.28,512.32,933.28,933.27,744.44,933.27,512.33,744.43,91.38,512.32,91.38Z"/><path class="cls-1" d="M512.32,851.8V824.64c8.75,0,17.45-.34,26-1l2.17,27.05C531.2,851.4,521.81,851.8,512.32,851.8Zm-12.12-.24Q486,851.09,472,849.42l3.24-26.95c8.51,1,17.13,1.67,25.83,1.94Zm68.43-4.4-4.51-26.79Q577,818.19,589.55,815l6.74,26.31Q582.68,844.83,568.62,847.16Zm-124.54-2.23q-13.92-2.86-27.4-6.79l7.59-26.1c8.3,2.44,16.74,4.51,25.27,6.26Zm179.26-11.7-8.86-25.67c8.22-2.84,16.31-6,24.19-9.52l11,24.82Q636.77,828.6,623.34,833.24ZM389.84,829c-8.78-3.42-17.42-7.16-25.88-11.3l11.88-24.4c7.77,3.77,15.73,7.24,23.82,10.34Zm285.21-18.72-13-23.82c7.61-4.16,15.06-8.65,22.25-13.39l15,22.6Q687.53,803.55,675.05,810.32Zm-335.92-6c-8.14-4.77-16-10-23.74-15.44l15.81-22.12c7,5,14.27,9.76,21.72,14.16Zm383.08-25.17-16.81-21.32q10.22-8,19.76-16.95l18.51,19.89Q733.32,770.41,722.21,779.16Zm-429.12-7.64q-10.82-9.15-20.79-19.15l19.2-19.2q9.19,9.19,19.15,17.61Zm470.46-30.9-20.1-18.25q8.75-9.63,16.68-20L781.67,719C775.94,726.44,769.87,733.68,763.55,740.62Zm-510.43-9c-6.07-7.19-11.88-14.64-17.34-22.33L257.9,693.5c5,7.05,10.37,13.92,16,20.53ZM798,695.86l-22.86-14.69q7-10.9,13.15-22.41l24,12.73C807.85,679.81,803,688,798,695.86ZM220.32,685.57c-4.77-8-9.26-16.36-13.39-24.88l24.4-11.88q5.73,11.74,12.33,22.86ZM824.47,646l-24.93-10.71q5.09-11.89,9.2-24.27l25.78,8.54Q830,633,824.47,646Zm-628.9-11.27q-5.05-13.13-9.07-26.79l26.1-7.59c2.41,8.35,5.22,16.55,8.33,24.61ZM842.32,592.4,815.91,586c2-8.35,3.71-16.87,5-25.49l26.84,4.14Q845.64,578.67,842.32,592.4ZM179.66,580.52c-1.86-9.18-3.37-18.51-4.48-27.93l27-3.18c1,8.67,2.36,17.21,4.11,25.65Zm671.28-44-27.1-1.86q.76-11.1.8-22.41l0-3.53,27.16-.58,0,4.16C851.77,520.5,851.5,528.56,850.94,536.54ZM173.06,524.42c-.13-4-.21-8-.21-12.09q0-8.16.4-16.18l27.1,1.27c-.21,4.93-.34,9.89-.34,14.91,0,3.74.08,7.45.21,11.14Zm650.17-41.77q-1.19-13-3.5-25.75l26.73-4.83q2.47,13.88,3.82,28ZM202.65,471.51,175.71,468q1.83-14.12,4.83-27.87l26.52,5.78C205.23,454.33,203.77,462.84,202.65,471.51Zm611.45-40q-3.42-12.65-7.77-24.85l25.57-9.12q4.73,13.21,8.41,26.92ZM213.66,420.72l-26-8c2.78-9,5.91-17.93,9.42-26.63l25.2,10.08C219.1,404.23,216.18,412.4,213.66,420.72Zm582.83-38.11q-5.41-11.86-11.78-23.18l23.66-13.31q6.92,12.33,12.84,25.2ZM233,372.51l-24.29-12.15q6.37-12.69,13.71-24.72l23.18,14.16C241.08,357.15,236.84,364.74,233,372.51Zm538-35.27q-7.32-10.78-15.49-21l21.22-17q8.79,11,16.76,22.7Zm-510.91-9.1-21.91-16c5.54-7.59,11.43-15,17.58-22.09l20.53,17.77Q267.76,317.62,260.07,328.14Zm478.29-31.32q-9-9.43-18.75-18.11l18-20.26Q748.23,267.83,758,278Zm-444.23-7.93-19-19.47c6.71-6.55,13.74-12.84,21-18.86l17.34,20.9Q303.42,279.78,294.13,288.89Zm405.38-26.57c-7-5.2-14.11-10.1-21.48-14.75l14.48-23c8,5,15.73,10.34,23.23,16ZM334.2,255.76l-15.54-22.28q11.62-8.08,23.9-15.17l13.58,23.5Q344.87,248.33,334.2,255.76Zm321.25-21.08q-11.5-6-23.55-11l10.4-25.09q13.09,5.45,25.62,11.91Zm-276.27-5L367.67,205.1c8.46-4,17.16-7.64,26-11l9.49,25.46Q390.93,224.19,379.18,229.72Zm228.27-14.93c-8.2-2.63-16.58-4.91-25.06-6.87l6.1-26.47q13.84,3.18,27.24,7.45Zm-179.52-3.26-7.32-26.15q13.53-3.78,27.48-6.47l5.15,26.68C444.66,207.23,436.2,209.22,427.93,211.52Zm128.84-8.35c-8.49-1.22-17.11-2.1-25.81-2.57l1.49-27.1c9.49.53,18.91,1.46,28.19,2.78Zm-77.87-1.43-2.81-27c9.26-1,18.67-1.59,28.17-1.8l.64,27.16Q491.76,200.41,478.9,201.74Z"/><path class="cls-1" d="M541.11,581.35c.64-.4,7.68-4.8,9.74-6a94.08,94.08,0,0,1,10.1-5.45c22.1-10.05,41.58-2.94,67.35,27.17,15.94,18.64,20.66,35.18,14.5,49.9-4.58,11-13.42,18.6-29.14,28-1,.6-10.07,5.87-12.4,7.31-36.6,22.58-120.48-29.11-180.81-117.45-60.48-88.56-76.14-183-39.05-205.9l4.89-3.1,5.31-3.45c18.75-12.13,30.75-17,45-14.57s26.3,13,36.53,32.1c21.56,40.51,16.8,59.73-10.94,77.2-2,1.28-9.08,5.56-9.74,6-6.8,4.21,4.72,32.39,31.48,71.58,27.1,39.63,49.75,61.3,57.16,56.74Z"/></svg>