<svg id="图层_1" data-name="图层 1" xmlns="http://www.w3.org/2000/svg" viewBox="0 0 1024 1024"><defs><style>.cls-1{fill:#385bff;}</style></defs><title>图标制作模版</title><path class="cls-1" d="M512.32,960.23c-247.07,0-448.11-201-448.11-448.11S265.24,64,512.32,64s448.11,201,448.11,448.11S759.39,960.23,512.32,960.23Zm0-869.05C280.2,91.18,91.37,280,91.37,512.13S280.2,933.07,512.32,933.07,933.26,744.24,933.26,512.13,744.43,91.18,512.32,91.18Z"/><path class="cls-1" d="M512.32,851.6V824.44c8.75,0,17.45-.34,26-1l2.17,27.05C531.2,851.2,521.81,851.6,512.32,851.6Zm-12.12-.24Q486,850.88,472,849.21l3.24-26.95c8.51,1,17.13,1.67,25.83,1.94Zm68.43-4.4-4.51-26.79Q577,818,589.55,814.82l6.74,26.31Q582.68,844.63,568.62,847Zm-124.54-2.23q-13.92-2.86-27.4-6.79l7.59-26.1c8.3,2.44,16.73,4.51,25.27,6.26ZM623.34,833l-8.86-25.67c8.22-2.84,16.31-6,24.19-9.52l11,24.82Q636.77,828.39,623.34,833Zm-233.49-4.19c-8.78-3.42-17.42-7.16-25.88-11.3l11.88-24.4c7.77,3.77,15.73,7.24,23.82,10.34Zm285.21-18.72-13-23.82c7.61-4.16,15.06-8.65,22.25-13.39l15,22.6Q687.53,803.35,675.05,810.12Zm-335.92-6c-8.14-4.77-16-10-23.74-15.44l15.81-22.12c7,5,14.27,9.76,21.72,14.16ZM722.21,779l-16.81-21.32q10.22-8,19.76-16.95l18.51,19.89Q733.32,770.21,722.21,779Zm-429.12-7.64q-10.82-9.15-20.79-19.15L291.5,733q9.19,9.19,19.15,17.61Zm470.46-30.9-20.1-18.25q8.75-9.63,16.68-20l21.54,16.55C775.94,726.23,769.87,733.47,763.55,740.42Zm-510.43-9c-6.07-7.19-11.88-14.64-17.34-22.33l22.12-15.75c5,7.05,10.37,13.92,16,20.53ZM798,695.66,775.12,681q7-10.9,13.15-22.41l24,12.73C807.85,679.61,803,687.75,798,695.66ZM220.32,685.36c-4.77-8-9.26-16.36-13.39-24.88l24.4-11.88q5.73,11.74,12.33,22.86ZM824.47,645.8l-24.93-10.71q5.09-11.89,9.2-24.27l25.78,8.54Q830,632.84,824.47,645.8Zm-628.9-11.27q-5.05-13.13-9.07-26.79l26.1-7.59c2.41,8.35,5.22,16.55,8.33,24.61ZM842.32,592.2l-26.42-6.42c2-8.35,3.71-16.87,5-25.49l26.84,4.14Q845.64,578.47,842.32,592.2ZM179.66,580.31c-1.86-9.18-3.37-18.51-4.48-27.93l27-3.18c1,8.67,2.36,17.21,4.11,25.65Zm671.28-44-27.1-1.86q.76-11.1.8-22.41l0-3.53,27.16-.58,0,4.16C851.76,520.3,851.5,528.36,850.94,536.34ZM173.06,524.22c-.13-4-.21-8-.21-12.09q0-8.16.4-16.18l27.1,1.27c-.21,4.93-.34,9.89-.34,14.91,0,3.74.08,7.45.21,11.14Zm650.17-41.77q-1.19-13-3.5-25.75l26.73-4.83q2.47,13.88,3.82,28ZM202.65,471.31l-26.95-3.5q1.83-14.12,4.83-27.87l26.52,5.78C205.23,454.12,203.77,462.64,202.65,471.31Zm611.45-40q-3.42-12.65-7.77-24.85l25.57-9.12q4.73,13.21,8.41,26.92ZM213.66,420.52l-26-8c2.78-9,5.91-17.93,9.42-26.63L222.28,396C219.1,404,216.18,412.19,213.66,420.52Zm582.83-38.11q-5.41-11.86-11.78-23.18l23.66-13.31q6.92,12.33,12.84,25.2ZM233,372.31l-24.29-12.15q6.37-12.69,13.71-24.72l23.18,14.16C241.08,357,236.84,364.54,233,372.31ZM771,337q-7.32-10.78-15.49-21l21.22-17q8.79,11,16.76,22.7Zm-510.91-9.1-21.91-16c5.54-7.59,11.43-15,17.58-22.09l20.53,17.77Q267.76,317.42,260.07,327.94Zm478.29-31.32q-9-9.43-18.75-18.11l18-20.26q10.58,9.39,20.34,19.6Zm-444.23-7.93-19-19.47c6.71-6.55,13.74-12.84,21-18.86l17.34,20.9Q303.42,279.57,294.13,288.68Zm405.38-26.57c-7-5.2-14.11-10.1-21.48-14.75l14.48-23c8,5,15.73,10.34,23.23,16ZM334.2,255.56l-15.54-22.28q11.62-8.08,23.9-15.17l13.58,23.5Q344.87,248.13,334.2,255.56Zm321.25-21.08q-11.5-6-23.55-11l10.4-25.09q13.09,5.45,25.62,11.91Zm-276.27-5L367.67,204.9c8.46-4,17.16-7.64,26-11l9.49,25.46Q390.93,224,379.18,229.52Zm228.27-14.93c-8.2-2.63-16.58-4.91-25.06-6.87l6.1-26.47q13.84,3.18,27.24,7.45Zm-179.52-3.26-7.32-26.15q13.53-3.78,27.48-6.47l5.15,26.68C444.66,207,436.2,209,427.93,211.32ZM556.77,203c-8.49-1.22-17.11-2.1-25.81-2.57l1.49-27.1c9.49.53,18.91,1.46,28.19,2.78Zm-77.87-1.43-2.81-27c9.26-1,18.67-1.59,28.17-1.8l.64,27.16Q491.76,200.21,478.9,201.54Z"/><path class="cls-1" d="M512.33,438.33A177.16,177.16,0,0,0,372.18,507l18.69,14.56a153.62,153.62,0,0,1,242.94,0L652.47,507A177.24,177.24,0,0,0,512.33,438.33Zm0-71.08c-79.84,0-150.73,37.77-196.24,96.23l19.14,14.87c41.11-52.76,105.07-86.83,177.11-86.83s136,34.07,177.11,86.83l19.17-14.9C663,405,592.17,367.25,512.33,367.25Zm0,142.17a106.32,106.32,0,0,0-84.1,41.25l18.72,14.56a82.74,82.74,0,0,1,130.83,0l18.66-14.56A106.32,106.32,0,0,0,512.33,509.42ZM476.8,616.05h0a35.53,35.53,0,1,0,35.53-35.53A35.53,35.53,0,0,0,476.8,616.05Z"/><path class="cls-1" d="M512.33,655.34a39.28,39.28,0,1,1,39.29-39.29A39.33,39.33,0,0,1,512.33,655.34Zm0-71.05a31.77,31.77,0,1,0,31.77,31.77A31.81,31.81,0,0,0,512.33,584.29ZM447.6,570.51l-24.65-19.18,2.31-3a110.12,110.12,0,0,1,174.14,0l2.31,3-24.58,19.19-2.31-3a79,79,0,0,0-124.9,0Zm64.72-41.11a86.19,86.19,0,0,1,66,30.61l12.75-10a102.58,102.58,0,0,0-157.56,0l12.79,10A85.91,85.91,0,0,1,512.33,529.4Zm-120.8-2.53-24.62-19.18,2.31-3a181.06,181.06,0,0,1,286.22,0l2.31,3-24.58,19.19-2.31-3c-28.83-36.94-72-58.13-118.52-58.13A149.35,149.35,0,0,0,393.83,523.9Zm120.8-68.61a156.92,156.92,0,0,1,122.1,58.09l12.74-9.95a173.52,173.52,0,0,0-269.69,0l12.77,9.95A156.72,156.72,0,0,1,512.33,458.26Zm176.45,25.36-2.31-3c-42.28-54.26-105.75-85.38-174.14-85.38S380.47,426.4,338.18,480.66l-2.31,3-25.07-19.48,2.31-3c48.34-62.08,120.95-97.68,199.21-97.68s150.86,35.59,199.24,97.65l2.31,3Zm-367.4-20.79,13.21,10.26c43.7-54.28,108.27-85.33,177.74-85.33s134,31.05,177.74,85.33l13.24-10.29C656.37,404.41,587,371,512.33,371S368.27,404.42,321.38,462.83Z"/></svg>